<svg width="701" height="700" viewBox="0 0 701 700" fill="none" xmlns="http://www.w3.org/2000/svg">
<rect width="700" height="700" fill="#D9D9D9"/>
<rect width="700" height="87.5" fill="#D9D9D9"/>
<rect x="526" width="87.5" height="87.5" fill="white"/>
<rect x="613" width="87.5" height="87.5" fill="#739552"/>
<rect x="350" width="87.5" height="87.5" fill="white"/>
<rect x="437" width="87.5" height="87.5" fill="#739552"/>
<rect x="176" width="87.5" height="87.5" fill="white"/>
<rect x="263" width="87.5" height="87.5" fill="#739552"/>
<rect width="87.5" height="87.5" fill="white"/>
<rect x="87" width="87.5" height="87.5" fill="#739552"/>
<rect x="700.5" y="173.5" width="700" height="87.5" transform="rotate(-180 700.5 173.5)" fill="#D9D9D9"/>
<rect x="174.5" y="173.5" width="87.5" height="87.5" transform="rotate(-180 174.5 173.5)" fill="white"/>
<rect x="87.5001" y="173.5" width="87.5" height="87.5" transform="matrix(-1 0 0 -1 175 347)" fill="#739552"/>
<rect x="350.5" y="173.5" width="87.5" height="87.5" transform="rotate(-180 350.5 173.5)" fill="white"/>
<rect x="263.5" y="173.5" width="87.5" height="87.5" transform="rotate(-180 263.5 173.5)" fill="#739552"/>
<rect x="524.5" y="173.5" width="87.5" height="87.5" transform="rotate(-180 524.5 173.5)" fill="white"/>
<rect x="437.5" y="173.5" width="87.5" height="87.5" transform="rotate(-180 437.5 173.5)" fill="#739552"/>
<rect x="700.5" y="173.5" width="87.5" height="87.5" transform="rotate(-180 700.5 173.5)" fill="white"/>
<rect x="613.5" y="173.5" width="87.5" height="87.5" transform="rotate(-180 613.5 173.5)" fill="#739552"/>
<rect y="174" width="700" height="87.5" fill="#D9D9D9"/>
<rect x="526" y="174" width="87.5" height="87.5" fill="white"/>
<rect x="613" y="174" width="87.5" height="87.5" fill="#739552"/>
<rect x="350" y="174" width="87.5" height="87.5" fill="white"/>
<rect x="437" y="174" width="87.5" height="87.5" fill="#739552"/>
<rect x="176" y="174" width="87.5" height="87.5" fill="white"/>
<rect x="263" y="174" width="87.5" height="87.5" fill="#739552"/>
<rect y="174" width="87.5" height="87.5" fill="white"/>
<rect x="87" y="174" width="87.5" height="87.5" fill="#739552"/>
<rect x="700.5" y="349.5" width="700" height="87.5" transform="rotate(180 700.5 349.5)" fill="#D9D9D9"/>
<rect x="174.5" y="349.5" width="87.5" height="87.5" transform="rotate(180 174.5 349.5)" fill="white"/>
<rect x="87.5" y="349.5" width="87.5" height="87.5" transform="rotate(180 87.5 349.5)" fill="#739552"/>
<rect x="350.5" y="349.5" width="87.5" height="87.5" transform="rotate(180 350.5 349.5)" fill="white"/>
<rect x="263.5" y="349.5" width="87.5" height="87.5" transform="rotate(180 263.5 349.5)" fill="#739552"/>
<rect x="524.5" y="349.5" width="87.5" height="87.5" transform="rotate(180 524.5 349.5)" fill="white"/>
<rect x="437.5" y="349.5" width="87.5" height="87.5" transform="rotate(180 437.5 349.5)" fill="#739552"/>
<rect x="700.5" y="349.5" width="87.5" height="87.5" transform="rotate(180 700.5 349.5)" fill="white"/>
<rect x="613.5" y="349.5" width="87.5" height="87.5" transform="rotate(180 613.5 349.5)" fill="#739552"/>
<rect y="350" width="700" height="87.5" fill="#D9D9D9"/>
<rect x="526" y="350" width="87.5" height="87.5" fill="white"/>
<rect x="613" y="350" width="87.5" height="87.5" fill="#739552"/>
<rect x="350" y="350" width="87.5" height="87.5" fill="white"/>
<rect x="437" y="350" width="87.5" height="87.5" fill="#739552"/>
<rect x="176" y="350" width="87.5" height="87.5" fill="white"/>
<rect x="263" y="350" width="87.5" height="87.5" fill="#739552"/>
<rect y="350" width="87.5" height="87.5" fill="white"/>
<rect x="87" y="350" width="87.5" height="87.5" fill="#739552"/>
<rect x="700.5" y="523.5" width="700" height="87.5" transform="rotate(180 700.5 523.5)" fill="#D9D9D9"/>
<rect x="174.5" y="523.5" width="87.5" height="87.5" transform="rotate(180 174.5 523.5)" fill="white"/>
<rect x="87.5" y="523.5" width="87.5" height="87.5" transform="rotate(180 87.5 523.5)" fill="#739552"/>
<rect x="350.5" y="523.5" width="87.5" height="87.5" transform="rotate(180 350.5 523.5)" fill="white"/>
<rect x="263.5" y="523.5" width="87.5" height="87.5" transform="rotate(180 263.5 523.5)" fill="#739552"/>
<rect x="524.5" y="523.5" width="87.5" height="87.5" transform="rotate(180 524.5 523.5)" fill="white"/>
<rect x="437.5" y="523.5" width="87.5" height="87.5" transform="rotate(180 437.5 523.5)" fill="#739552"/>
<rect x="700.5" y="523.5" width="87.5" height="87.5" transform="rotate(180 700.5 523.5)" fill="white"/>
<rect x="613.5" y="523.5" width="87.5" height="87.5" transform="rotate(180 613.5 523.5)" fill="#739552"/>
<rect y="524" width="700" height="87.5" fill="#D9D9D9"/>
<rect x="526" y="524" width="87.5" height="87.5" fill="white"/>
<rect x="613" y="524" width="87.5" height="87.5" fill="#739552"/>
<rect x="350" y="524" width="87.5" height="87.5" fill="white"/>
<rect x="437" y="524" width="87.5" height="87.5" fill="#739552"/>
<rect x="176" y="524" width="87.5" height="87.5" fill="white"/>
<rect x="263" y="524" width="87.5" height="87.5" fill="#739552"/>
<rect y="524" width="87.5" height="87.5" fill="white"/>
<rect x="87" y="524" width="87.5" height="87.5" fill="#739552"/>
<rect x="700.5" y="699.5" width="700" height="87.5" transform="rotate(180 700.5 699.5)" fill="#D9D9D9"/>
<rect x="174.5" y="699.5" width="87.5" height="87.5" transform="rotate(180 174.5 699.5)" fill="white"/>
<rect x="87.5" y="699.5" width="87.5" height="87.5" transform="rotate(180 87.5 699.5)" fill="#739552"/>
<rect x="350.5" y="699.5" width="87.5" height="87.5" transform="rotate(180 350.5 699.5)" fill="white"/>
<rect x="263.5" y="699.5" width="87.5" height="87.5" transform="rotate(180 263.5 699.5)" fill="#739552"/>
<rect x="524.5" y="699.5" width="87.5" height="87.5" transform="rotate(180 524.5 699.5)" fill="white"/>
<rect x="437.5" y="699.5" width="87.5" height="87.5" transform="rotate(180 437.5 699.5)" fill="#739552"/>
<rect x="700.5" y="699.5" width="87.5" height="87.5" transform="rotate(180 700.5 699.5)" fill="white"/>
<rect x="613.5" y="699.5" width="87.5" height="87.5" transform="rotate(180 613.5 699.5)" fill="#739552"/>
</svg>
