<svg width="65" height="65" viewBox="0 0 65 65" fill="none" xmlns="http://www.w3.org/2000/svg">
<rect width="65" height="65" rx="32.5" fill="#C8C8C8"/>
<g filter="url(#filter0_d_56_17)">
<path d="M53.7464 37.73C54.9769 37.3982 55.5923 37.2322 55.8352 36.9149C56.0783 36.5977 56.0783 36.0873 56.0783 35.0666V30.5072C56.0783 29.4865 56.0783 28.976 55.8352 28.6589C55.5921 28.3415 54.9769 28.1755 53.7464 27.8437C49.1476 26.6035 46.2694 21.7957 47.4563 17.227C47.7827 15.9706 47.9458 15.3424 47.79 14.9739C47.6341 14.6055 47.1871 14.3516 46.2925 13.8437L42.2259 11.5349C41.3484 11.0365 40.9096 10.7874 40.5158 10.8404C40.1218 10.8935 39.6776 11.3368 38.7887 12.2233C35.3481 15.6558 29.6553 15.6556 26.2146 12.2231C25.3259 11.3366 24.8816 10.8933 24.4877 10.8402C24.0939 10.7872 23.655 11.0363 22.7773 11.5346L18.7108 13.8435C17.8164 14.3513 17.3692 14.6052 17.2134 14.9736C17.0576 15.342 17.2207 15.9703 17.547 17.2269C18.7332 21.7957 15.8528 26.6036 11.2533 27.8438C10.0228 28.1755 9.4075 28.3415 9.16443 28.6586C8.92139 28.976 8.92139 29.4865 8.92139 30.5072V35.0666C8.92139 36.0873 8.92139 36.5977 9.16443 36.9149C9.40746 37.2322 10.0228 37.3982 11.2533 37.73C15.852 38.9702 18.7302 43.7781 17.5434 48.3466C17.217 49.6031 17.0538 50.2313 17.2096 50.5998C17.3654 50.9683 17.8126 51.2223 18.707 51.7299L22.7736 54.039C23.6513 54.5372 24.0902 54.7864 24.4841 54.7333C24.878 54.6803 25.3223 54.2368 26.2108 53.3502C29.6532 49.9151 35.35 49.9149 38.7927 53.35C39.6811 54.2368 40.1253 54.6801 40.5193 54.7331C40.9131 54.7862 41.3521 54.5369 42.2297 54.0387L46.2963 51.7297C47.1909 51.222 47.6381 50.9681 47.7938 50.5996C47.9496 50.231 47.7864 49.6029 47.4599 48.3464C46.2725 43.7781 49.1483 38.9704 53.7464 37.73Z" fill="black" stroke="#020202" stroke-width="1.5" stroke-linecap="round"/>
<path d="M40.7519 32.7867C40.7519 37.3444 37.0572 41.0391 32.4995 41.0391C27.9417 41.0391 24.247 37.3444 24.247 32.7867C24.247 28.229 27.9417 24.5342 32.4995 24.5342C37.0572 24.5342 40.7519 28.229 40.7519 32.7867Z" fill="#828282" stroke="black" stroke-width="1.5"/>
</g>
<defs>
<filter id="filter0_d_56_17" x="4.17139" y="10.0832" width="56.6569" height="53.4072" filterUnits="userSpaceOnUse" color-interpolation-filters="sRGB">
<feFlood flood-opacity="0" result="BackgroundImageFix"/>
<feColorMatrix in="SourceAlpha" type="matrix" values="0 0 0 0 0 0 0 0 0 0 0 0 0 0 0 0 0 0 127 0" result="hardAlpha"/>
<feOffset dy="4"/>
<feGaussianBlur stdDeviation="2"/>
<feComposite in2="hardAlpha" operator="out"/>
<feColorMatrix type="matrix" values="0 0 0 0 0 0 0 0 0 0 0 0 0 0 0 0 0 0 0.25 0"/>
<feBlend mode="normal" in2="BackgroundImageFix" result="effect1_dropShadow_56_17"/>
<feBlend mode="normal" in="SourceGraphic" in2="effect1_dropShadow_56_17" result="shape"/>
</filter>
</defs>
</svg>
